<?xml version="1.0" encoding="utf-8"?>
<!-- Generator: Adobe Illustrator 19.2.1, SVG Export Plug-In . SVG Version: 6.00 Build 0)  -->
<svg version="1.1" id="Layer_1" xmlns="http://www.w3.org/2000/svg" xmlns:xlink="http://www.w3.org/1999/xlink" x="0px" y="0px"
	 viewBox="0 0 512 512" style="enable-background:new 0 0 512 512;" xml:space="preserve">
<style type="text/css">
	.st0{clip-path:url(#SVGID_2_);fill:#010101;}
	.st1{clip-path:url(#SVGID_4_);fill:#010101;}
	.st2{clip-path:url(#SVGID_6_);fill:#010101;}
	.st3{clip-path:url(#SVGID_8_);fill:#010101;}
	.st4{clip-path:url(#SVGID_10_);fill:#010101;}
</style>
<g>
	<g>
		<g>
			<defs>
				<rect id="SVGID_1_" x="107.3" y="193.3" width="297.3" height="155.5"/>
			</defs>
			<clipPath id="SVGID_2_">
				<use xlink:href="#SVGID_1_"  style="overflow:visible;"/>
			</clipPath>
			<polygon class="st0" points="256,193.3 107.3,260.9 256,348.7 404.6,260.9 			"/>
		</g>
	</g>
</g>
<g>
	<g>
		<g>
			<defs>
				<rect id="SVGID_3_" x="107.3" y="14.2" width="148.7" height="334.5"/>
			</defs>
			<clipPath id="SVGID_4_">
				<use xlink:href="#SVGID_3_"  style="overflow:visible;"/>
			</clipPath>
			<polygon class="st1" points="107.3,260.9 256,348.7 256,193.3 256,14.2 			"/>
		</g>
	</g>
</g>
<g>
	<g>
		<g>
			<defs>
				<rect id="SVGID_5_" x="256" y="14.2" width="148.7" height="334.5"/>
			</defs>
			<clipPath id="SVGID_6_">
				<use xlink:href="#SVGID_5_"  style="overflow:visible;"/>
			</clipPath>
			<polygon class="st2" points="256,14.2 256,193.3 256,348.7 404.6,260.9 			"/>
		</g>
	</g>
</g>
<g>
	<g>
		<g>
			<defs>
				<rect id="SVGID_7_" x="107.3" y="289.1" width="148.7" height="209.5"/>
			</defs>
			<clipPath id="SVGID_8_">
				<use xlink:href="#SVGID_7_"  style="overflow:visible;"/>
			</clipPath>
			<polygon class="st3" points="107.3,289.1 256,498.5 256,376.9 			"/>
		</g>
	</g>
</g>
<g>
	<g>
		<g>
			<defs>
				<rect id="SVGID_9_" x="256" y="289.1" width="148.7" height="209.5"/>
			</defs>
			<clipPath id="SVGID_10_">
				<use xlink:href="#SVGID_9_"  style="overflow:visible;"/>
			</clipPath>
			<polygon class="st4" points="256,376.9 256,498.5 404.7,289.1 			"/>
		</g>
	</g>
</g>
<path d="M377.8,61.8c1.6-5.2,4-9.7,7.2-13.5c3.2-3.9,7.2-6.9,12.1-9c4.9-2.2,10.5-3.2,16.8-3.2c4.8,0,9.4,0.8,13.8,2.3
	c4.4,1.5,8.2,3.7,11.5,6.5c3.3,2.8,5.9,6.3,7.9,10.4c2,4.1,2.9,8.7,2.9,13.8c0,5.3-0.9,9.9-2.6,13.7c-1.7,3.8-4,7.2-6.8,10.2
	c-2.8,3-6,5.6-9.6,8c-3.6,2.4-7.1,4.8-10.8,7.1c-3.6,2.4-7.1,4.9-10.5,7.6c-3.4,2.7-6.4,5.9-9,9.5h49.8v18.4h-77.3
	c0-6.1,0.9-11.4,2.6-15.9c1.8-4.5,4.1-8.5,7.1-12.1c3-3.6,6.5-6.8,10.6-9.9c4.1-3,8.3-6.1,12.9-9.2c2.3-1.6,4.8-3.2,7.4-4.9
	c2.6-1.7,5-3.5,7.1-5.5c2.2-2,4-4.3,5.4-6.8c1.5-2.5,2.2-5.4,2.2-8.6c0-5.1-1.5-9.1-4.4-12c-3-2.9-6.7-4.3-11.4-4.3
	c-3.1,0-5.7,0.7-7.9,2.2c-2.2,1.5-3.9,3.4-5.2,5.7c-1.3,2.4-2.2,5-2.8,7.8c-0.6,2.9-0.8,5.7-0.8,8.5h-20.5
	C375.5,72.5,376.2,67,377.8,61.8z"/>
</svg>
