<svg xmlns="http://www.w3.org/2000/svg" xmlns:xlink="http://www.w3.org/1999/xlink" version="1.1" x="0px" y="0px" viewBox="0 0 90 90" enable-background="new 0 0 90 90" xml:space="preserve"><g><path fill-rule="evenodd" clip-rule="evenodd" fill="#000000" d="M57.563,52.533c-0.179,0.128-0.369,0.19-0.573,0.19l-28.091-3.15   c-0.127,0-0.255-0.047-0.382-0.143c-0.102-0.095-0.191-0.206-0.268-0.334l-8.79-16.371c-0.102-0.223-0.141-0.446-0.115-0.668   c0-0.223,0.063-0.414,0.191-0.573c0.127-0.159,0.293-0.271,0.497-0.334c0.178-0.063,0.357-0.047,0.535,0.048L57.41,50.72   c0.204,0.127,0.345,0.301,0.421,0.524c0.102,0.224,0.127,0.462,0.076,0.716C57.856,52.184,57.741,52.373,57.563,52.533z    M58.71,55.826c0.128,0.128,0.217,0.286,0.268,0.477l6.383,21.86c0.051,0.224,0.051,0.43,0,0.621   c-0.051,0.224-0.153,0.397-0.306,0.524c-0.153,0.127-0.332,0.191-0.535,0.191H28.976c-0.204,0-0.395-0.08-0.573-0.239L2.72,51.913   c-0.153-0.129-0.242-0.303-0.268-0.524c-0.051-0.224-0.039-0.431,0.038-0.621c0.076-0.224,0.204-0.382,0.382-0.479   c0.153-0.126,0.319-0.174,0.497-0.143l54.882,5.44C58.404,55.62,58.558,55.699,58.71,55.826z M68.036,36.067   c0.229,0,0.433,0.095,0.611,0.287L87.336,58.26c0.102,0.127,0.178,0.287,0.229,0.479c0.025,0.158,0.013,0.334-0.038,0.524   c-0.051,0.191-0.128,0.35-0.229,0.479L69.717,78.498c-0.152,0.126-0.318,0.206-0.496,0.237c-0.204,0.033-0.383-0.031-0.535-0.19   c-0.179-0.127-0.293-0.286-0.345-0.477L56.493,37.451c-0.076-0.222-0.089-0.444-0.038-0.668c0.051-0.19,0.166-0.366,0.344-0.525   c0.128-0.127,0.293-0.19,0.497-0.19H68.036z M65.704,15.114c0.152-0.095,0.306-0.126,0.459-0.095c0.152,0,0.305,0.063,0.458,0.19   l18.651,17.422c0.153,0.159,0.254,0.334,0.305,0.524c0.051,0.223,0.039,0.43-0.038,0.621c-0.051,0.223-0.152,0.398-0.305,0.524   c-0.153,0.128-0.319,0.192-0.497,0.192h-27.9c-0.203,0-0.382-0.08-0.535-0.239c-0.178-0.191-0.28-0.397-0.306-0.621   c-0.051-0.254-0.013-0.493,0.115-0.716l9.21-17.468C65.424,15.289,65.552,15.177,65.704,15.114z"></path></g></svg>