<?xml version="1.0" encoding="utf-8"?>
<!-- Generator: Adobe Illustrator 21.1.0, SVG Export Plug-In . SVG Version: 6.00 Build 0)  -->
<svg version="1.1" id="Layer_1" xmlns="http://www.w3.org/2000/svg" xmlns:xlink="http://www.w3.org/1999/xlink" x="0px" y="0px"
	 viewBox="0 0 512 512" style="enable-background:new 0 0 512 512;" xml:space="preserve">
<path d="M398,49.8h-51c-5.9-29-31.4-49.8-61-49.8h-62.2c-29.6,0-55,20.8-61,49.8h-51c-34.3,0-62.2,27.8-62.2,62.2v335.9
	c0,34.3,27.8,62.2,62.2,62.2H398c34.3,0,62.2-27.8,62.2-62.2V112C460.2,77.6,432.4,49.8,398,49.8z M186.6,62.2
	c0-20.6,16.7-37.3,37.3-37.3h62.2c20.6,0,37.3,16.7,37.3,37.3v24.9H186.6V62.2z M435.4,447.8c0,20.6-16.7,37.3-37.3,37.3H112
	c-20.6,0-37.3-16.7-37.3-37.3V112c0-20.6,16.7-37.3,37.3-37.3h49.8v24.9c0,6.9,5.6,12.4,12.4,12.4h161.7c6.9,0,12.4-5.6,12.4-12.4
	V74.6H398c20.6,0,37.3,16.7,37.3,37.3V447.8z"/>
<path d="M369.3,192.8H140.7c-6.9,0-12.4,5.6-12.4,12.4c0,6.9,5.6,12.4,12.4,12.4h228.6c6.9,0,12.4-5.6,12.4-12.4
	C381.8,198.4,376.2,192.8,369.3,192.8z"/>
<path d="M220,379.4h-79.3c-6.9,0-12.4,5.6-12.4,12.4c0,6.9,5.6,12.4,12.4,12.4H220c6.9,0,12.4-5.6,12.4-12.4
	C232.5,385,226.9,379.4,220,379.4z"/>
<path d="M369.3,286.1H140.7c-6.9,0-12.4,5.6-12.4,12.4s5.6,12.4,12.4,12.4h228.6c6.9,0,12.4-5.6,12.4-12.4S376.2,286.1,369.3,286.1z
	"/>
</svg>
