<?xml version="1.0" encoding="utf-8"?>
<!-- Generator: Adobe Illustrator 21.1.0, SVG Export Plug-In . SVG Version: 6.00 Build 0)  -->
<svg version="1.1" id="Layer_1" xmlns="http://www.w3.org/2000/svg" xmlns:xlink="http://www.w3.org/1999/xlink" x="0px" y="0px"
	 viewBox="0 0 512 512" style="enable-background:new 0 0 512 512;" xml:space="preserve">
<g>
	<path d="M470.1,342.9c-17.9-55.7-57-101.9-107.8-129.2c-6,6.7-12.5,12.8-19.7,18.2C409.6,264.1,456,332.6,456,411.7
		c0,25-33.9,43.2-57.6,48.5l-42.1-82.9l9.6,98c-33.3,7.9-71.9,11.9-109.8,11.9c-33.4,0-75.7-3.3-106.1-9.4l10.2-100.6l-42.8,86.5
		c-34.6-9.9-60.7-31.8-61.1-52.1c-1.5-79.1,46.4-147.5,113.3-179.9c-7.1-5.4-13.7-11.5-19.7-18.2c-50.8,27.3-89.7,73.6-107.8,129.2
		c0,0-4.9,15.2-6.4,24.2c-3,14.5-4.5,29.5-4.5,44.7c0,69.4,112.9,100.4,224.8,100.4S481,480.9,481,411.6
		C480.8,379.7,479.9,374.8,470.1,342.9z"/>
	<path d="M256.2,224.8c62,0,112.4-50.4,112.4-112.4S318.2,0,256.2,0S143.8,50.4,143.8,112.4S194.2,224.8,256.2,224.8z M256.2,25
		c48.2,0,87.4,39.2,87.4,87.4s-39.2,87.4-87.4,87.4s-87.4-39.2-87.4-87.4S208,25,256.2,25z"/>
</g>
</svg>
