<?xml version="1.0" encoding="utf-8"?>
<!-- Generator: Adobe Illustrator 21.1.0, SVG Export Plug-In . SVG Version: 6.00 Build 0)  -->
<svg version="1.1" id="Layer_1" xmlns="http://www.w3.org/2000/svg" xmlns:xlink="http://www.w3.org/1999/xlink" x="0px" y="0px"
	 viewBox="0 0 512 512" style="enable-background:new 0 0 512 512;" xml:space="preserve">
<g transform="translate(0,-982.36218)">
	<path d="M222,982.4c-7,0-10.9,4.9-12.6,9.6l-15.1,52c-10.9,3.5-21.1,8.3-31,13.4l-47.8-26.8c-5.1-2.7-11.9-1.6-15.9,2.5l-47.8,47.4
		c-4.2,4.2-5.1,11.3-2.1,16.4l26.4,47.4c-5.1,9.8-9.1,20.4-12.6,31l-52.8,15.1c-5.6,1.6-9.7,7.2-9.6,13v67.5c0,5.8,4.1,11.4,9.6,13
		l52.4,15.1c3.5,10.8,7.9,21.1,13,31l-26.4,47.8c-2.8,5-1.9,11.8,2.1,15.9l47.8,47.4c4,4.1,10.8,5.2,15.9,2.5l47.8-26.8
		c10,5.2,20.2,9.9,31,13.4l15.1,52c1.4,5.6,6.8,9.9,12.6,10.1H290c5.8-0.2,11.1-4.5,12.6-10.1l15.1-52c10.9-3.5,21.1-8.3,31-13.4
		l47.8,26.8c5.1,2.7,11.9,1.6,15.9-2.5l47.8-47.4c4-4.1,4.9-10.9,2.1-15.9l-26.4-47.8c5.1-9.9,9.5-20.2,13-31l52.4-15.1
		c5.6-1.6,9.7-7.2,9.6-13v-67.5c0-5.8-4.1-11.4-9.6-13l-52.8-15.1c-3.5-10.7-7.5-21.3-12.6-31l26.4-47.4c3-5.1,2.1-12.2-2.1-16.4
		l-47.8-47.4c-4-4.1-10.8-5.2-15.9-2.5l-47.8,26.8c-10-5.2-20.2-9.9-31-13.4l-15.1-52c-1.6-5.4-6.9-9.5-12.6-9.6L222,982.4
		L222,982.4z M232.1,1009.2h47.8l13.8,48.7c1.2,4.4,4.9,8,9.2,9.2c14.1,3.9,27.3,9.6,39.8,16.8c4.1,2.3,9.4,2.3,13.4,0l44.5-24.7
		l33.1,33.1l-24.7,44.9c-2.1,4-1.9,9.1,0.4,13c7.1,12.5,12.5,26.1,16.4,40.3c1.3,4.5,5.1,8.1,9.6,9.2l48.7,13.8v47.4l-48.7,13.8
		c-4.6,1.2-8.5,5-9.6,9.6c-3.9,14.1-9.2,27.3-16.4,39.8c-2.3,3.9-2.5,9-0.4,13l25.2,44.9l-33.6,33.1l-44.5-24.7
		c-4.1-2.3-9.4-2.3-13.4,0c-12.5,7.1-25.7,12.9-39.8,16.8c-4.4,1.2-8,4.9-9.2,9.2l-13.8,49.1h-47.8l-13.8-49.1
		c-1.2-4.4-4.9-8-9.2-9.2c-14.1-3.9-27.3-9.6-39.8-16.8c-4.1-2.3-9.4-2.3-13.4,0l-44.5,24.7l-33.6-33.1l25.2-44.9
		c2.1-4,1.9-9.1-0.4-13c-7.1-12.5-12.5-25.7-16.4-39.8c-1.2-4.6-5-8.5-9.6-9.6l-48.7-13.8v-47.4l48.7-13.8c4.5-1.1,8.3-4.8,9.6-9.2
		c3.9-14.1,9.2-27.7,16.4-40.3c2.3-3.9,2.5-9,0.4-13l-24.7-44.9l33.1-33.1l44.5,24.7c4.1,2.3,9.4,2.3,13.4,0
		c12.5-7.1,25.7-12.9,39.8-16.8c4.4-1.2,8-4.9,9.2-9.2L232.1,1009.2z M256,1143.4c-51.7,0-93.9,42.2-93.9,93.9
		c0,51.7,42.2,93.9,93.9,93.9s93.9-42.2,93.9-93.9C349.9,1185.6,307.7,1143.4,256,1143.4L256,1143.4z M256,1170.3
		c37.2,0,67.1,29.9,67.1,67.1c0,37.2-29.9,67.1-67.1,67.1s-67.1-29.9-67.1-67.1C188.9,1200.1,218.8,1170.3,256,1170.3z"/>
</g>
</svg>
