<?xml version="1.0" encoding="utf-8"?>
<!-- Generator: Adobe Illustrator 21.1.0, SVG Export Plug-In . SVG Version: 6.00 Build 0)  -->
<svg version="1.1" id="Layer_1" xmlns="http://www.w3.org/2000/svg" xmlns:xlink="http://www.w3.org/1999/xlink" x="0px" y="0px"
	 viewBox="0 0 512 512" style="enable-background:new 0 0 512 512;" xml:space="preserve">
<g>
	<path d="M457.1,264c-12.6,0-23,10.3-23,23c0,98.3-79.9,178.1-178.1,178.1S77.9,385.2,77.9,287c0-85,59.8-156.3,139.1-174.1
		l-25.9,33.3c-8,9.8-5.7,24.7,4,32.2c4,3.4,9.2,4.6,14.4,4.6c6.9,0,13.8-2.9,18.4-8.6l57.5-74.1c7.5-9.8,6.3-23.6-3.4-31.6
		L208.3,5.4c-9.8-8-24.1-6.9-32.8,2.3c-8,9.8-6.9,24.1,2.3,32.2l31.6,27C108.3,88.7,31.9,178.9,31.9,287
		c0,123.5,100.6,224.1,224.1,224.1S480.1,410.5,480.1,287C480.1,274.3,469.8,264,457.1,264z"/>
</g>
</svg>
