<?xml version="1.0" encoding="utf-8"?>
<!-- Generator: Adobe Illustrator 19.2.1, SVG Export Plug-In . SVG Version: 6.00 Build 0)  -->
<svg version="1.1" id="Layer_1" xmlns="http://www.w3.org/2000/svg" xmlns:xlink="http://www.w3.org/1999/xlink" x="0px" y="0px"
	 viewBox="0 0 512 512" style="enable-background:new 0 0 512 512;" xml:space="preserve">
<g>
	<path d="M81.1,279.5l67.3,36.4l258.3-155.3l15.8,28.9l-112,66.6c9.6,8.2,16.5,20.6,16.5,34.4c0,6.9-1.4,13.7-4.8,19.2
		c0,4.1,2.1,17.2,15.8,28.9c14.4,12.4,28.2,13.7,30.9,13.7h73.5V342h10.3v-61.8h51.5v186.2h-51.5v-61.8h-10.3v-20.6h-74.9
		c0,0-28.9,2.1-50.8-17.2c-17.2-14.4-24-28.2-26.1-33c-2.7,0.7-6.2,1.4-8.9,1.4c-22,0-39.8-15.1-44-35.7l-106.5,63.9L81.1,279.5z"/>
	<polygon points="9.7,287.1 37.2,272 33,265.1 52.3,254.1 105.9,350.3 86.6,361.3 83.2,355.1 56.4,370.2 	"/>
	<path d="M21.4,224.6l199.2-118.2l28.9,46l16.5-11l-27.5-46l14.4-8.2l28.2,44.7l17.2-11l-27.5-44l13.7-8.2l26.8,43.3l17.2-11
		l-26.8-42.6l12.4-7.6c0,0,12.4-6.9,26.8-4.8C360.7,48,366.2,59,366.2,59l48.8,74.9L151.2,294L21.4,224.6z"/>
</g>
</svg>
