<?xml version="1.0" encoding="utf-8"?>
<!-- Generator: Adobe Illustrator 19.2.1, SVG Export Plug-In . SVG Version: 6.00 Build 0)  -->
<svg version="1.1" id="Layer_1" xmlns="http://www.w3.org/2000/svg" xmlns:xlink="http://www.w3.org/1999/xlink" x="0px" y="0px"
	 viewBox="0 0 512 512" style="enable-background:new 0 0 512 512;" xml:space="preserve">
<g transform="translate(0,-952.36218)">
	<path d="M182.1,996.3c-4.3,0.4-8.2,3.4-9.6,7.5l-19.9,59.5h-30v-27.9c0-9.1-7.7-16.7-16.7-16.7H72.4c-9.1,0-16.7,7.7-16.7,16.7
		v28.1c-25.3,2.3-45.2,24-45.2,50v256.7c0,27.6,22.3,50.2,49.7,50.2h391.6c27.4,0,49.7-22.7,49.7-50.2v-256.7
		c0-27.6-22.3-50.2-49.7-50.2h-92.4l-19.9-59.5c-1.5-4.4-6-7.5-10.6-7.5C280,996.3,230.9,996.3,182.1,996.3z M191.1,1018.6H321
		l19.5,59.3c1.5,4.4,6,7.7,10.6,7.7h100.6c15.3,0,27.4,12.2,27.4,27.9v256.7c0,15.7-12.1,27.9-27.4,27.9H60.2
		c-15.3,0-27.4-12.2-27.4-27.9v-256.7c0-15.7,12.1-27.9,27.4-27.9h100.6c4.7,0,9.2-3.2,10.6-7.7L191.1,1018.6z M78,1041h22.3v22.3
		H78V1041z M256,1102.2c-76.9,0-139.5,62.8-139.5,139.7c0,76.9,62.6,139.5,139.5,139.5s139.5-62.6,139.5-139.5
		C395.5,1164.9,332.9,1102.2,256,1102.2L256,1102.2z M406.7,1130.2c0,15.4,12.5,27.9,27.9,27.9s27.9-12.5,27.9-27.9
		c0-15.4-12.5-27.9-27.9-27.9C417.8,1102.3,407,1118.4,406.7,1130.2z M256,1124.7c64.8,0,117.2,52.3,117.2,117.2
		c0,64.8-52.3,117-117.2,117c-64.8,0-117.2-52.2-117.2-117C138.8,1177,191.2,1124.7,256,1124.7z M256,1158.1
		c-46.1,0-83.7,37.6-83.7,83.7c0,46.1,37.6,83.7,83.7,83.7s83.7-37.6,83.7-83.7C339.7,1195.7,302.1,1158.1,256,1158.1z M256,1180.5
		c34,0,61.4,27.3,61.4,61.4c0,34-27.3,61.4-61.4,61.4c-34,0-61.4-27.3-61.4-61.4C194.6,1207.8,222,1180.5,256,1180.5z"/>
</g>
</svg>
