<?xml version="1.0" encoding="utf-8"?>
<!-- Generator: Adobe Illustrator 19.2.1, SVG Export Plug-In . SVG Version: 6.00 Build 0)  -->
<svg version="1.1" id="Layer_1" xmlns="http://www.w3.org/2000/svg" xmlns:xlink="http://www.w3.org/1999/xlink" x="0px" y="0px"
	 viewBox="0 0 512 512" style="enable-background:new 0 0 512 512;" xml:space="preserve">
<g>
	<path d="M477,291.1c0-42.7-23.8-80-58.8-99.4c-4.2,5.1-9,9.6-14.4,13.4c32.3,15.2,54.8,48,54.8,86c0,12.4-17.8,23-44.8,28.9
		c-13.2-41-42-75.1-79.4-95.2c-4.4,4.9-9.2,9.4-14.5,13.4c49.3,23.8,83.5,74.2,83.5,132.5c0,18.4-25,31.8-42.4,35.7l-31-61.1
		l7.1,72.2c-24.5,5.8-53,8.8-80.9,8.8c-24.6,0-55.8-2.4-78.2-6.9l7.5-74.1L154,409c-25.5-7.3-44.7-23.4-45-38.4
		c-1.1-58.3,34.2-108.7,83.5-132.5c-5.2-4-10.1-8.5-14.5-13.4c-37.4,20.1-66.1,54.2-79.4,95.2c-27-5.9-44.8-16.5-44.8-28.9
		c0-38,22.5-70.8,54.8-86c-5.4-3.8-10.3-8.3-14.4-13.4c-35,19.3-58.8,56.6-58.8,99.4c0,24,25.2,39.2,58.5,46.7
		c-2.2,10.7-3.3,21.7-3.3,32.9c0,51.1,83.2,74,165.6,74s165.6-22.9,165.6-74c0-11.3-1.2-22.3-3.3-32.9
		C451.8,330.2,477,315.1,477,291.1z"/>
	<path d="M148.9,202.4c4.2,0,8.3-0.5,12.3-1.3c-2.7-5.6-5-11.5-6.7-17.6c-1.8,0.3-3.6,0.6-5.5,0.6c-22,0-39.9-17.9-39.9-39.9
		s17.9-39.9,39.9-39.9c4.7,0,9.1,1,13.2,2.4c2.9-5.6,6.3-10.9,10.1-15.9c-7.1-3.1-15-4.9-23.3-4.9c-32.1,0-58.3,26.1-58.3,58.3
		S116.7,202.4,148.9,202.4z"/>
	<path d="M363.5,104.2c22,0,39.9,17.9,39.9,39.9S385.5,184,363.5,184c-1.9,0-3.7-0.3-5.5-0.6c-1.7,6.1-4,12-6.7,17.6
		c4,0.9,8.1,1.3,12.3,1.3c32.1,0,58.3-26.1,58.3-58.3s-26.1-58.3-58.3-58.3c-8.3,0-16.2,1.8-23.3,4.9c3.8,5,7.2,10.3,10.1,15.9
		C354.5,105.2,358.9,104.2,363.5,104.2z"/>
	<path d="M256.2,233c45.7,0,82.8-37.1,82.8-82.8s-37.1-82.8-82.8-82.8s-82.8,37.1-82.8,82.8S210.5,233,256.2,233z M256.2,85.8
		c35.5,0,64.4,28.9,64.4,64.4s-28.9,64.4-64.4,64.4s-64.4-28.9-64.4-64.4S220.7,85.8,256.2,85.8z"/>
</g>
</svg>
