<?xml version="1.0" encoding="utf-8"?>
<!-- Generator: Adobe Illustrator 19.2.1, SVG Export Plug-In . SVG Version: 6.00 Build 0)  -->
<svg version="1.1" id="Layer_1" xmlns="http://www.w3.org/2000/svg" xmlns:xlink="http://www.w3.org/1999/xlink" x="0px" y="0px"
	 viewBox="0 0 512 512" style="enable-background:new 0 0 512 512;" xml:space="preserve">
<g>
	<path d="M256.1,349.1c-8.6,0-15.5-6.9-15.5-15.5c0-8.6,6.9-15.5,15.5-15.5c34.1,0,61.9-27.8,62-62c0-8.6,7-15.5,15.5-15.5l0,0
		c8.6,0,15.5,7,15.5,15.5C349,307.3,307.3,349,256.1,349.1C256.1,349.1,256.1,349.1,256.1,349.1z"/>
	<path d="M201.1,326.4c-4,0-7.9-1.5-11-4.5c-17.6-17.6-27.3-40.9-27.3-65.8c0-51.3,41.8-93.1,93.1-93.1c24.9,0,48.2,9.7,65.8,27.3
		c6.1,6.1,6.1,15.9,0,22c-6.1,6.1-15.9,6.1-21.9,0c-11.7-11.7-27.3-18.2-43.9-18.2c-34.2,0-62.1,27.8-62.1,62.1
		c0,16.6,6.5,32.2,18.2,43.9c6.1,6.1,6.1,15.9,0,21.9C209.1,324.9,205.1,326.4,201.1,326.4z"/>
	<path d="M69.8,457.7c-4,0-7.9-1.5-11-4.5c-6.1-6.1-6.1-15.9,0-21.9L431.2,58.9c6.1-6.1,15.9-6.1,21.9,0c6.1,6.1,6.1,15.9,0,21.9
		L80.8,453.2C77.8,456.2,73.8,457.7,69.8,457.7z"/>
	<path d="M144.4,382.4c-2.4,0-4.9-0.6-7.2-1.8C95.5,358.8,55,325.2,16.9,280.8c-12.3-14.4-12.3-35.2,0-49.5
		C91,144.7,171.4,100.8,256,100.8c39.8,0,79.5,10.1,117.8,30c7.6,3.9,10.6,13.3,6.6,20.9c-3.9,7.6-13.3,10.6-20.9,6.6
		c-33.9-17.6-68.7-26.5-103.5-26.5c-75.1,0-147.6,40.2-215.5,119.5c-2.2,2.6-2.2,6.5,0,9.2c35.5,41.4,72.9,72.6,111.1,92.6
		c7.6,4,10.5,13.3,6.6,20.9C155.4,379.4,150,382.4,144.4,382.4z"/>
	<path d="M256,411.2c-17.6,0-35.3-2-52.7-5.9c-8.4-1.9-13.6-10.2-11.7-18.5c1.9-8.4,10.2-13.6,18.5-11.7c15.1,3.4,30.6,5.1,45.9,5.1
		c75.1,0,147.6-40.2,215.5-119.5c2.2-2.6,2.2-6.5,0-9.2c-20.3-23.8-41.5-44.3-62.9-61.1c-6.7-5.3-7.9-15-2.6-21.8
		c5.3-6.7,15-7.9,21.8-2.6c23,18.1,45.6,40,67.3,65.3c12.3,14.4,12.3,35.2,0,49.5C421,367.3,340.6,411.2,256,411.2z"/>
</g>
</svg>
