<?xml version="1.0" encoding="utf-8"?>
<!-- Generator: Adobe Illustrator 19.2.1, SVG Export Plug-In . SVG Version: 6.00 Build 0)  -->
<svg version="1.1" id="Layer_1" xmlns="http://www.w3.org/2000/svg" xmlns:xlink="http://www.w3.org/1999/xlink" x="0px" y="0px"
	 viewBox="0 0 512 512" style="enable-background:new 0 0 512 512;" xml:space="preserve">
<path d="M257.3,46l-86.9,77.5V91.6h-48.1V166L9.8,265.4h53.8V466h386.9V265.4h53.8L257.3,46z M356,328.5
	c-18.8,50-78.7,60.6-79.4,60.6L266,391l10-3.8c0.6,0,45-18.1,38.7-70.6c-1.2-13.8-6.2-26.9-14.4-39.4c-35.6-56.9-33.1-88.8-30-101.3
	c-11.2,13.1-41.9,54.4-38.8,116.9v0.6c0,1.9,0,5.6-3.1,6.2c-1.2,0-1.9,0-3.1-0.6c-5.6-4.4-11.9-21.9-13.1-29.4
	c-0.6-2.5-0.6-5-0.6-7.5c-17.5,23.1-24.4,45.6-20,67.5c6.2,35.6,40,56.9,40.6,56.9l4.4,2.5l-5-0.6c-0.6,0-83.7-8.1-77.5-108.8
	c5-38.8,35-67.5,35.6-68.1l2.5-2.5l-0.6,3.8c0,0-3.1,18.1,8.1,22.5c0.6-13.1,6.9-97.5,97.5-113.1l1.9-0.6v2.5c0,0.6-0.6,1.3-1.2,2.5
	c-2.5,6.2-8.8,18.1-5,39.4c1.9,8.8,5,17.5,9.4,26.9c12.5,24.4,18.1,53.7,20,65c0-10.6,5.6-20,15.6-28.1l1.9-1.2v1.9
	c0,2.5,0,4.4-0.6,6.2c0,6.2-1.2,13.1,9.4,29.4C361,284.8,363.5,308.5,356,328.5z"/>
</svg>
