<?xml version="1.0" encoding="utf-8"?>
<!-- Generator: Adobe Illustrator 19.2.1, SVG Export Plug-In . SVG Version: 6.00 Build 0)  -->
<svg version="1.1" id="Layer_1" xmlns="http://www.w3.org/2000/svg" xmlns:xlink="http://www.w3.org/1999/xlink" x="0px" y="0px"
	 viewBox="0 0 512 512" style="enable-background:new 0 0 512 512;" xml:space="preserve">
<g>
	<path d="M417.4,224H94.6C77.7,224,64,238.3,64,256s13.7,32,30.6,32h322.8c16.9,0,30.6-14.3,30.6-32S434.3,224,417.4,224z"/>
	<path d="M417.4,96H94.6C77.7,96,64,110.3,64,128s13.7,32,30.6,32h322.8c16.9,0,30.6-14.3,30.6-32S434.3,96,417.4,96z"/>
	<path d="M417.4,352H94.6C77.7,352,64,366.3,64,384s13.7,32,30.6,32h322.8c16.9,0,30.6-14.3,30.6-32S434.3,352,417.4,352z"/>
</g>
</svg>
