<?xml version="1.0" encoding="utf-8"?>
<!-- Generator: Adobe Illustrator 19.2.1, SVG Export Plug-In . SVG Version: 6.00 Build 0)  -->
<svg version="1.1" id="Layer_1" xmlns="http://www.w3.org/2000/svg" xmlns:xlink="http://www.w3.org/1999/xlink" x="0px" y="0px"
	 viewBox="0 0 512 512" style="enable-background:new 0 0 512 512;" xml:space="preserve">
<path d="M347.7,324.2c17.8,9.1,42.7,11.2,58.5,3c21.4-11.1,38.3-15.2,55.1-10.1c0-0.3,0-0.5,0-0.8c1-5.9,6.4-10,12.2-9
	c5.7,0.9,9.6,6.4,8.7,12.3c-0.4,2.4-1.6,4.4-3.1,6c2.9,1.5,7.8,3.3,15,4.4l2.2-13.7c1.7-10.9-6.1-18-10.9-19.4l-7.3-33.7
	c-1.3-6.4-5.5-12.4-15-13.9l-17.3-2.7l-29.6-4.7l-17.6-2.8c-9.5-1.5-15.3,2.9-18.6,8.6l-17.3,29.8c-5-0.1-14.5,4.2-16.2,15.1
	l-4.6,28.7C343.8,322.2,345.7,323.1,347.7,324.2z M388.7,255.8c1.7-3.4,3.8-5.6,7.9-5l32.3,5.1l0.1,0l32.4,5.1c4,0.7,5.4,3.5,6,7.2
	l5.3,26.4l-48.6-7.7l-0.1,0l-48.5-7.7L388.7,255.8z M358.8,300.1c0.9-5.9,6.3-10,12.1-9c5.7,0.9,9.6,6.4,8.7,12.3
	c-0.9,5.9-6.3,9.9-12.1,9C361.7,311.5,357.8,305.9,358.8,300.1z"/>
<path d="M290.7,180.1V98h-55.6v33l-55.4-48.9l-160,141h27.8v95.1c17.6-6.6,35.1-2.8,57.9,9c15.7,8.2,40.9,6.1,58.5-3
	c24.4-12.8,37.6-9.8,63.2,1.6c19.6,8.7,37.4,8.8,57.1,0c10.6-4.7,19.1-7.9,27.3-9.2V223h27.8L290.7,180.1z"/>
<path d="M475.7,365.1c-21.9-13.4-42-10.7-69.4,3.6c-15.8,8.2-40.7,6.1-58.5-3c-24.2-12.8-38-9.7-63.4,1.6c-19.8,8.8-37.6,8.8-57.1,0
	c-25.6-11.4-38.7-14.5-63.2-1.6c-17.6,9.1-42.9,11.2-58.5,3c-27.6-14.3-47.3-17-69.2-3.6c0,0-9.5,7.3-30.4,7.4V384v40.9v3.1
	c20.8-0.1,30.4-7.4,30.4-7.4c21.8-13.4,41.6-10.8,69.2,3.5c15.7,8.2,40.9,6.1,58.5-3c24.4-12.8,37.6-9.8,63.2,1.6
	c19.6,8.8,37.4,8.8,57.1,0c25.5-11.3,39.2-14.5,63.4-1.6c17.8,9.1,42.7,11.2,58.5,3c27.5-14.3,47.5-17,69.4-3.5
	c0,0,9.1,7.3,30.3,7.4v-3.1V384v-11.6C484.8,372.4,475.7,365.1,475.7,365.1z"/>
</svg>
