<?xml version="1.0" encoding="utf-8"?>
<!-- Generator: Adobe Illustrator 19.2.1, SVG Export Plug-In . SVG Version: 6.00 Build 0)  -->
<svg version="1.1" id="Layer_1" xmlns="http://www.w3.org/2000/svg" xmlns:xlink="http://www.w3.org/1999/xlink" x="0px" y="0px"
	 viewBox="0 0 512 512" style="enable-background:new 0 0 512 512;" xml:space="preserve">
<style type="text/css">
	.st0{fill-rule:evenodd;clip-rule:evenodd;}
</style>
<path class="st0" d="M477,340.9c-230.7,30.2-395.4,66.4-397.8-82.3c0,0,5-57.6,75.6-61.2c0,0,2.4-51.2,56.3-57
	c29-3.1,62,26.8,65.5,58.2c0,0,71.4-13.2,74.5,56.4c1.1,24.2-4.4,65.5-73.2,63.7c0,0-39.8-5.4-45.3-67
	C221.6,371,394,364,396.4,255.7c1.1-46.8-28.9-95-96.5-86c-37-93.1-135.6-87.8-172.2-1.4c-52.5,0-92.6,40.4-92,93.1
	C37.8,431.2,273.9,380,477,340.9z"/>
</svg>
