<?xml version="1.0" encoding="utf-8"?>
<!-- Generator: Adobe Illustrator 19.2.1, SVG Export Plug-In . SVG Version: 6.00 Build 0)  -->
<svg version="1.1" id="Layer_1" xmlns="http://www.w3.org/2000/svg" xmlns:xlink="http://www.w3.org/1999/xlink" x="0px" y="0px"
	 viewBox="0 0 512 512" style="enable-background:new 0 0 512 512;" xml:space="preserve">
<path d="M364.8,499.2H147.5c-25.9,0-47.6-21.6-47.6-47.6V60.3c0-25.9,21.6-47.6,47.6-47.6h217.8c25.9,0,47.6,21.6,47.6,47.6v391.3
	C412.4,477.6,391.3,499.2,364.8,499.2z M309.1,57.1L309.1,57.1c0-4.9-3.8-8.6-8.6-8.6h-89.2c-4.9,0-8.6,3.8-8.6,8.6l0,0
	c0,4.9,3.8,8.6,8.6,8.6H301C305.4,65.7,309.1,62,309.1,57.1z M258.3,426.3c-13.5-1.6-25.4,10.3-23.8,23.8
	c1.1,10.3,9.2,18.4,19.5,19.5c13.5,1.6,25.4-10.3,23.8-23.8C276.7,435.4,268.6,426.8,258.3,426.3z M355.6,91.7h-45.4l-36.8,89.2
	l51.9,68.6l0,0l0,0L223.8,366.8l0,0l0,0l48.6-114.6l-50.8-71.3l0,0l0,0l21.6-89.2h-85.9c-3.2,0-5.9,3.2-5.9,7v283.8
	c0,3.2,2.2,6.5,5.9,6.5h198.4c3.2,0,6.5-2.7,6.5-6.5V98.2C361.6,94.9,358.9,91.7,355.6,91.7z"/>
</svg>
