<?xml version="1.0" encoding="utf-8"?>
<!-- Generator: Adobe Illustrator 19.2.1, SVG Export Plug-In . SVG Version: 6.00 Build 0)  -->
<svg version="1.1" id="Layer_1" xmlns="http://www.w3.org/2000/svg" xmlns:xlink="http://www.w3.org/1999/xlink" x="0px" y="0px"
	 viewBox="0 0 512 512" style="enable-background:new 0 0 512 512;" xml:space="preserve">
<style type="text/css">
	.st0{fill:none;}
</style>
<g>
	<g>
		<path d="M356.6,237.5l-80.6,10.8c-20.4,2.7-44.3,0.5-44.3,0.5l0,0l-83.9-11.2c0,0-6.3,46.5,19,60.1c25,13.4,37.5,11.3,45.2,10.2
			c3.4-0.5,27.7-3.5,29-41.6c7.8,1.4,15.6,0.8,22.3,0c1.5,37.7,25.6,41.1,29,41.6c7.7,1.1,20.2,3.2,45.2-10.2
			C362.9,284,356.6,237.5,356.6,237.5z"/>
	</g>
	<g>
		<polygon class="st0" points="391.2,144.7 391.3,145.1 391.3,145.1 391.9,145.3 391.2,144.7 		"/>
		<path d="M457.3,150.2c-5.9-6.4-66-12.9-66-12.9l0.1,0l-135.7,9.5L120.3,138c-14.4,1.7-55.4,6.9-60.3,12.1
			c-5.9,6.4-2.6,11.4,10.3,15c18.3,5.1,35.5,9.8,53.7,15.4c7.4,2.3,67.7,29.1,107.6,32.3c16.2,1.3,21.8,1.8,27.1,1.8
			c5.2,0.2,10.7-0.2,27.1-1.8c39.8-3.9,100.2-30,107.6-32.3c18.2-5.6,35.4-10.3,53.7-15.4C459.9,161.6,463.1,156.5,457.3,150.2z"/>
		<path d="M343.3,29.5c0,0-8.7-28.6-30.8-25c-18.7,3.1-37.3,15.3-45.6,16.3c-1.4,0.2-2.6,0.3-3.7,0.4c0,0-1.7,0.2-4.6,0.2
			c-2.9,0-4.6-0.2-4.6-0.2c-1.1-0.1-2.3-0.2-3.7-0.4c-8.2-1-26.8-13.3-45.6-16.3c-22.1-3.6-30.8,25-30.8,25l-28.3,81.7h225.9
			L343.3,29.5z"/>
	</g>
	<g>
		<path d="M109.1,346.8l105.9,70.1l4-16.7c1.7-6.7,14-16.4,24.3-23.6c-15.3-8.3-40.9-23.5-81.2-50.3c-22-14.7-46.2-35.6-62.4-50.1
			c-1.5-1.4-3.2-1.3-4.1-1.2c-0.9,0.1-2.5,0.6-3.5,2.5c-8,14-16.5,34.6-19.2,43.2C80.2,326.2,92.4,335,109.1,346.8z"/>
		<path d="M325.1,420.2c-0.5-0.4-0.9-0.9-1.3-1.3c-0.2-0.2-0.5-0.4-0.7-0.6c0-0.1,0-0.1-0.1-0.2c-0.4-0.6-0.7-1.3-0.9-2.1
			c-0.1-0.3-0.3-0.6-0.3-0.9c-0.1-0.6-0.1-1.2-0.1-1.9c0-0.4-0.1-0.9,0-1.3c0.1-0.5,0.3-0.9,0.5-1.4c0.2-0.5,0.4-1.1,0.7-1.6
			c0.1-0.1,0.1-0.2,0.1-0.2c0.3-0.4,0.7-0.6,1-1c0.3-0.3,0.5-0.7,0.9-1l113.2-82.2c3.1-2.2,4-6.4,2-9.7
			c-4.9-8.3-11.6-19.6-17.1-29.3c-2.3-4.1-7.7-5-11.3-1.9c-13.6,12.1-33.1,27.8-55.3,42.6c-51.8,34.5-79.3,49.6-91.1,55.5
			c-5,2.5-23,15.2-29.1,21.3c-1,1-1.6,2.2-1.9,3.5l-22.2,91.9c-1.1,4.7,2.4,9.1,7.2,9.1h75.7c1.7,0,3.3-0.6,4.6-1.6l61.3-49.2
			c3.9-3.1,3.7-9-0.4-11.8L325.1,420.2z"/>
		<path d="M100,360.6L100,360.6c-12.9-8.3-19.5-12-22.7-13.6c-10.4,14-33.4,79.9-17.7,160.7h133.5l17.8-73.7L100,360.6z"/>
		<path d="M344.1,413.3l43.1,30.1c2.1,1.5,3.4,3.9,3.5,6.5c0.1,2.6-1.1,5.1-3.1,6.7l-63.6,51h121.7c13.8-81.1-8.4-141.7-18.4-154
			L344.1,413.3z"/>
	</g>
</g>
</svg>
