<?xml version="1.0" encoding="utf-8"?>
<!-- Generator: Adobe Illustrator 19.2.1, SVG Export Plug-In . SVG Version: 6.00 Build 0)  -->
<svg version="1.1" id="Layer_1" xmlns="http://www.w3.org/2000/svg" xmlns:xlink="http://www.w3.org/1999/xlink" x="0px" y="0px"
	 viewBox="0 0 512 512" style="enable-background:new 0 0 512 512;" xml:space="preserve">
<g>
	<path d="M459.9,49H288.5c-16.6,0-30.2,13.6-30.2,30.2v113.6l97.9,169.6c10.6,18.3,11.6,37.5,2.9,52.7
		c-8.8,15.1-25.9,23.8-47.1,23.8h-53.1c2.8,13.7,15.1,24.1,29.6,24.1h171.5c16.6,0,30.2-13.6,30.2-30.2V79.2
		C490.1,62.6,476.5,49,459.9,49z M423.7,281.6c-7.8,0-14.1-6.3-14.1-14.1c0-7.8,6.3-14.1,14.1-14.1c7.8,0,14.1,6.3,14.1,14.1
		C437.8,275.2,431.5,281.6,423.7,281.6z M457.9,193.4c0,5-4.1,9.1-9.1,9.1H293.5c-5,0-9.1-4.1-9.1-9.1v-0.8c0-5,4.1-9.1,9.1-9.1
		h155.4c5,0,9.1,4.1,9.1,9.1V193.4z M457.9,148.1c0,5-4.1,9-9.1,9H293.5c-5,0-9.1-4.1-9.1-9v-0.8c0-5,4.1-9.1,9.1-9.1h155.4
		c5,0,9.1,4.1,9.1,9.1V148.1z M457.9,102.8c0,5-4.1,9.1-9.1,9.1H293.5c-5,0-9.1-4.1-9.1-9.1V102c0-5,4.1-9.1,9.1-9.1h155.4
		c5,0,9.1,4.1,9.1,9.1V102.8z"/>
	<path d="M336.3,373.8l-78.1-135.2l-50.9-88.3c-6.7-11.6-15.5-17.4-24.4-17.4c-8.8,0-17.7,5.8-24.3,17.4l-129,223.5
		C16.2,397,27.2,416,53.9,416h204.3H312C338.8,416,349.7,397,336.3,373.8z M210.6,196.5L203,327.1h-39.7l-7.7-130.6
		C155.6,196.5,210.6,196.5,210.6,196.5z M183.1,399.3h-0.3c-17.8,0-30.2-13-30.2-30.5c0-18.4,12.4-30.8,30.2-30.8
		c18.1,0,30.2,12.4,30.5,30.8C213.3,386.3,201.2,399.3,183.1,399.3z"/>
</g>
</svg>
