<?xml version="1.0" encoding="utf-8"?>
<!-- Generator: Adobe Illustrator 19.2.1, SVG Export Plug-In . SVG Version: 6.00 Build 0)  -->
<svg version="1.1" id="Layer_1" xmlns="http://www.w3.org/2000/svg" xmlns:xlink="http://www.w3.org/1999/xlink" x="0px" y="0px"
	 viewBox="0 0 512 512" style="enable-background:new 0 0 512 512;" xml:space="preserve">
<path d="M417.4,223.7c-7.5-15.6,5.9-31.8,6.4-49.8C426.3,75.6,346,7.5,241.9,5.5S56.4,60.3,55.7,173.5
	c-0.3,59.5,38.5,94.8,65.2,136.8c26.8,42.3,31.1,84.1,15,149c54.5,36.8,122.2,31.1,179.5,47.3c2.7-33.1-2.2-67.9,9.8-80
	c17.5-17.6,50.8,23.1,72.3-4.3c19-24.2-11.3-29.8,16.7-60.7c6.7-7.4-12.9-9.9-13.1-16.7c-0.2-5.9,14.9,2.2,18.5-5
	c3.7-7.5-7.9-21-1.4-29.1c8-10,29.3,9.6,37.1-9.1C461.8,285.8,431.9,253.8,417.4,223.7z M260.5,300.9h-46.1v-45.2h46.1V300.9z
	 M307.9,166.1c-2.5,6.1-5.5,11.3-9.1,15.6c-3.6,4.3-7.6,8-12,11c-4.4,3-8.6,6.1-12.5,9.1c-3.9,3-7.4,6.5-10.4,10.4
	c-3,3.9-4.9,8.8-5.7,14.7V238h-39.6v-13.2c0.6-8.4,2.2-15.5,4.8-21.1c2.6-5.7,5.7-10.5,9.2-14.5c3.5-4,7.2-7.5,11.2-10.4
	c3.9-2.9,7.5-5.9,10.9-8.8c3.3-2.9,6-6.2,8.1-9.7c2.1-3.5,3-7.9,2.8-13.2c0-9-2.2-15.7-6.6-20c-4.4-4.3-10.5-6.5-18.3-6.5
	c-5.3,0-9.8,1-13.6,3.1c-3.8,2.1-7,4.8-9.4,8.2c-2.4,3.4-4.3,7.4-5.4,12c-1.2,4.6-1.8,9.5-1.8,14.8h-43.2c0.2-10.6,2-20.3,5.4-29.1
	c3.4-8.8,8.2-16.4,14.4-22.9s13.6-11.5,22.3-15.1c8.7-3.6,18.4-5.4,29.2-5.4c13.9,0,25.5,1.9,34.8,5.7c9.3,3.8,16.8,8.6,22.5,14.2
	c5.7,5.7,9.7,11.8,12.2,18.3c2.4,6.6,3.7,12.7,3.7,18.3C311.6,152.3,310.4,160,307.9,166.1z"/>
</svg>
