<?xml version="1.0" encoding="utf-8"?>
<!-- Generator: Adobe Illustrator 19.2.1, SVG Export Plug-In . SVG Version: 6.00 Build 0)  -->
<svg version="1.1" id="Layer_1" xmlns="http://www.w3.org/2000/svg" xmlns:xlink="http://www.w3.org/1999/xlink" x="0px" y="0px"
	 viewBox="0 0 512 512" style="enable-background:new 0 0 512 512;" xml:space="preserve">
<g id="Layer_2">
</g>
<g>
	<g>
		<g>
			<path d="M118.2,63.5c4.8-3.2,9.5-5.3,14.9-8c2.7-1.1,4.8-2.1,7.4-3.7c0.5-0.5,4.8-2.1,3.2-1.6c-1.6,1.1,1.1-0.5,1.1-0.5
				c1.1-0.5,2.1-1.1,3.7-1.6c6.9-2.7,14.3-5.3,21.8-7.4c41.9-12.7,86.5-16.4,130.5-10.1c34,5.3,67.4,16.4,97.6,31.8
				c5.8,3.2,13.3,1.6,16.4-4.2c3.2-5.3,1.6-13.8-4.2-16.4C357.5,15.2,298.1,0.9,238.1,4.6c-38.7,2.7-76.4,11.7-111.4,27.6
				c-6.9,3.2-13.8,6.4-20.2,10.6c-5.3,3.7-8,10.6-4.2,16.4C104.9,64.6,112.9,67.2,118.2,63.5L118.2,63.5z"/>
		</g>
	</g>
	<g>
		<g>
			<path d="M91.1,414.2c-5.8-14.3-9-29.2-11.7-44.6c-0.5-3.2-1.1-6.9-1.6-10.1c0-0.5-0.5-3.7,0,0c0-1.1,0-1.6-0.5-2.7
				c0-2.1-0.5-4.2-0.5-6.4c-1.1-8-1.1-15.9-1.1-24.4s0.5-17.5,1.6-26c0-1.1,0-2.1,0.5-3.2c-0.5,2.7,0-0.5,0-1.1
				c0.5-2.1,0.5-4.2,1.1-6.4c1.1-4.8,1.6-9.5,3.2-13.8c5.3-19.1,11.7-34.5,23.3-50.9c5.3-7.4,11.7-14.9,19.1-21.8
				c8.5-8,17-14.9,27.1-21.2c24.9-15.9,53.6-27.1,83.3-29.7c32.4-3.2,64.7,1.6,95,13.3c23.9,9,45.6,22.8,63.1,41.4
				c9.5,9.5,17,20.7,23.9,32.4c3.7,6.4,7.4,13.3,10.6,20.2c1.6,3.7,3.7,7.4,5.3,11.1c-1.1-2.1-0.5-0.5,0,0c1.6,3.7,2.7,7.4,3.7,11.1
				c1.1,3.2,1.6,6.4,2.1,9.5c0.5,1.6,0.5,3.7,1.1,5.8c0,1.1,0.5,2.1,0.5,3.2c-0.5-3.2,0,1.6,0,2.1c0.5,4.2,0.5,8.5,0.5,13.3
				c0,2.1,0,4.2,0,6.9c0,1.1,0,2.1,0,3.7c0,1.1,0,1.6,0,2.1c0-1.1,0-1.1,0,0c-1.6,10.6-3.7,16.4-10.1,24.9c1.1-1.6-1.1,1.6-1.1,1.6
				c-1.1,1.1-1.6,1.6-2.7,2.7c-1.6,1.6-3.2,3.2-4.2,3.7c-5.3,4.2-11.7,6.9-18,8.5c-13.8,4.2-29.7,3.2-43-3.7
				c-10.1-5.3-17.5-12.7-22.8-22.8c-1.1-2.1-1.6-3.2-2.7-6.4c-0.5-1.6-1.1-3.7-1.1-5.3c-0.5-2.1-2.1-6.4,0-1.6c-1.1-2.7,0-6.4-0.5-9
				c0-4.2-1.1-8.5-1.6-13.3c-11.7-58.4-95-76.4-132.6-32.9c-28.6,32.9-20.7,81.2-5.3,118.3c17.5,43,50.9,76.9,92.3,97.6
				c13.3,6.9,27.6,12.2,41.9,17c14.9,4.8,21.2-18.6,6.4-23.3c-25.5-8.5-51.5-20.7-71.6-37.7c-17-13.8-28.6-28.6-39.3-47.2
				c-2.1-4.2-4.2-8.5-6.4-12.7c-1.1-2.1,0.5,1.1-0.5-1.1c-0.5-1.1-1.1-2.1-1.1-2.7c-1.1-2.1-1.6-4.2-2.1-6.4
				c-2.7-7.4-4.8-15.4-6.4-23.3c-0.5-3.7-1.1-6.9-1.6-10.1c0-1.1,0-1.6-0.5-2.1c-0.5-2.7,0,1.1,0,0c0-1.6-0.5-3.2-0.5-4.8
				c-1.6-13.3,0.5-26.5,7.4-38.2c14.9-24.4,44-28.6,68.4-18.6c9,3.7,17.5,10.1,22.8,18.6c6.4,10.1,5.8,21.2,7.4,33.4
				c0.5,3.2,0,1.1,0,0.5c0,1.6,0.5,2.7,0.5,4.2c0.5,1.6,0.5,3.7,1.1,5.3c1.1,3.7,2.7,8,4.2,11.1c1.6,3.7,4.2,8,6.9,11.1
				c10.1,13.3,23.9,22.8,40.3,27.6c28.6,8.5,63.7,1.1,83.3-22.3c23.9-28.6,21.2-70.6,10.1-104.5c-7.4-22.3-20.2-43.5-34.5-61.5
				c-15.9-20.7-36.1-38.2-59.4-50.4c-60.5-31.8-133.2-36.1-195.2-7.4c-43,19.6-80.1,53.1-98.7,97.1c-14.3,34-18.6,71.6-14.9,108.8
				c2.1,22.3,6.4,44.6,13.8,65.8c0.5,1.1,1.1,2.1,1.1,3.2c2.7,6.4,8,10.6,14.9,8.5C88.5,428,93.8,420.5,91.1,414.2L91.1,414.2z"/>
		</g>
	</g>
	<g>
		<g>
			<path d="M52.9,192.4c0.5-1.1,1.1-1.6,2.1-2.7s1.6-2.1,2.1-3.2c0.5-1.1,2.7-3.2,0,0c0.5-1.1,1.6-1.6,2.1-2.7
				c6.9-8.5,14.9-17,22.8-24.9c12.2-11.7,22.8-20.2,36.6-29.2c16.4-10.6,34-19.6,52-26c21.2-7.4,43.5-12.2,66.3-13.8
				c10.1-0.5,20.2-0.5,29.7,0c4.8,0,10.1,0.5,14.9,0.5c2.7,0,5.8,0.5,8.5,1.1c1.6,0,3.2,0.5,4.8,0.5c3.2,0.5-2.7-0.5,0.5,0
				c1.1,0,2.1,0,2.7,0.5c15.9,2.7,31.8,6.4,47.2,11.7c45.6,15.9,86.5,48.3,115.7,88.1c3.7,5.3,10.6,8,16.4,4.2
				c5.3-3.2,8-11.1,4.2-16.4c-28.6-39.8-66.3-72.2-111.4-91.8c-30.2-13.3-62.6-20.7-95.5-22.3c-31.3-1.6-63.7,0.5-93.9,9
				c-39.3,11.1-75.3,31.8-106.1,58.4c-15.4,13.8-30.8,29.2-41.9,46.7C23.8,193.5,44.5,205.7,52.9,192.4L52.9,192.4z"/>
		</g>
	</g>
	<g>
		<g>
			<path d="M243.9,322.4c-0.5,22.8,7.4,45.6,18.6,65.3c15.9,28.6,41.4,50.9,72.7,60.5c24.4,7.4,48.8,6.4,74.3,3.7
				c6.4-0.5,12.2-5.3,12.2-12.2c0-6.4-5.3-12.7-12.2-12.2c-20.7,2.1-41.4,3.7-60.5-1.1c-8.5-2.1-14.3-4.2-20.7-7.4
				c-3.2-1.6-6.4-3.7-9.5-5.3c-1.6-1.1-2.7-2.1-4.2-2.7c-1.1-0.5-1.6-1.1-2.1-1.6c-0.5-0.5-0.5-0.5,0,0c-0.5-0.5-1.1-0.5-1.1-1.1
				c-5.3-4.2-10.6-9.5-14.9-14.9c-1.1-1.1-2.1-2.7-3.2-3.7c1.6,1.6-1.6-2.1-1.6-2.7c-2.1-2.7-3.7-5.8-5.8-8.5
				c-3.2-5.3-5.8-10.6-8.5-16.4c0-0.5-0.5-1.1-0.5-1.6c1.1,2.7,0.5,1.1,0,0.5c-0.5-1.6-1.1-2.7-1.6-4.2c-1.1-2.7-1.6-5.3-2.7-8
				c-1.6-4.8-2.7-9.5-3.7-14.3c0-0.5-0.5-4.2-0.5-1.6c0.5,2.7,0-1.1,0-1.6c0-3.2,0-6.4,0-9.5C268.3,307,244.5,307,243.9,322.4
				L243.9,322.4z"/>
		</g>
	</g>
	<g>
		<g>
			<path d="M398.9,323.5c1.1-30.8-11.1-61-30.2-84.9c-30.2-38.2-83.3-56.2-131-49.9c-46.2,5.8-91.8,37.1-110.9,80.1
				c-12.2,28.1-14.3,58.9-10.1,88.6c8,54.1,36.1,103.5,75.3,141.1c11.1,10.6,28.1-6.4,17-17c-32.9-31.8-57.3-71.6-66.8-116.7
				c-1.1-3.7-1.6-7.4-2.1-10.6c0-0.5,0-1.6-0.5-2.1c-0.5-3.2,0.5,2.7,0-0.5c0-1.6-0.5-3.7-0.5-5.3c-0.5-4.8-1.1-10.1-1.1-14.9
				c0-10.6,1.1-20.7,3.2-30.8c4.2-19.6,13.8-37.7,27.6-51.5c6.9-6.9,12.2-10.6,19.1-15.9c9.5-6.4,19.1-11.7,30.2-15.4
				c25.5-8.5,52-7.4,76.9,0.5c18.6,5.8,34.5,15.4,47.2,28.6c6.9,6.9,10.6,11.7,15.9,20.7c2.1,3.2,3.7,6.9,5.3,10.6
				c0.5,1.1,1.1,1.6,1.1,2.7c1.1,2.7-0.5-1.6,0.5,1.1c0.5,1.6,1.6,3.7,2.1,5.3c2.1,6.4,4.2,12.7,5.3,19.6c0,1.6,0.5,2.7,0.5,4.2
				c-0.5-4.2,0,0,0,1.1c0.5,4.2,0.5,8.5,0.5,12.2C374.4,339.4,398.9,339.4,398.9,323.5L398.9,323.5z"/>
		</g>
	</g>
</g>
</svg>
