<?xml version="1.0" encoding="utf-8"?>
<!-- Generator: Adobe Illustrator 19.2.1, SVG Export Plug-In . SVG Version: 6.00 Build 0)  -->
<svg version="1.1" id="Layer_1" xmlns="http://www.w3.org/2000/svg" xmlns:xlink="http://www.w3.org/1999/xlink" x="0px" y="0px"
	 viewBox="0 0 512 512" style="enable-background:new 0 0 512 512;" xml:space="preserve">
<g id="Icon_Base_copy_2">
	<path d="M382.8,452.5H44c-17.8,0-32.3-14.5-32.3-32.3V171.6c0-17.8,14.5-32.3,32.3-32.3h338.8c17.8,0,32.3,14.5,32.3,32.3v248.7
		C415.1,438,400.6,452.5,382.8,452.5z M44,158.3c-7.3,0-13.3,6-13.3,13.3v248.7c0,7.3,6,13.3,13.3,13.3h338.8
		c7.3,0,13.3-6,13.3-13.3V171.6c0-7.3-6-13.3-13.3-13.3H44z"/>
	<g>
		<g>
			<path d="M480.2,89.3c-1.5-17.5-17.1-30.9-34.9-29.4L107.7,88.8c-8.6,0.7-16.4,4.8-21.9,11.4c-4.4,5.2-6.9,11.5-7.4,18.2h19.1
				c0.4-2.2,1.3-4.2,2.8-6c2.3-2.7,5.5-4.4,9-4.7l337.6-28.9c0.4,0,0.8-0.1,1.2-0.1c6.8,0,12.6,5.3,13.2,12.2l21.2,247.7
				c0.6,7.3-4.8,13.8-12.1,14.4l-34.4,3v19l36-3.1c17.7-1.5,30.9-17.2,29.4-34.9L480.2,89.3z"/>
		</g>
	</g>
	<path d="M57.3,420.3c-5.6,0-7-3.2-3-7.1l62.3-61.3c4-3.9,11.4-5.3,16.6-3.1l16.3,6.9c5.2,2.2,13.6,2.1,18.6-0.3l35.9-16.6
		c5.1-2.4,12.7-7.3,16.9-11l59-51.7c4.2-3.7,11.1-3.7,15.3-0.1l25.5,21.8c4.3,3.6,11.7,4.3,16.5,1.5l38.2-22.3
		c4.8-2.8,8.4-0.6,8.4,4.9v127.6c0,5.5-4.2,10-9.8,10L57.3,420.3z"/>
	<circle cx="129.8" cy="235.7" r="34.6"/>
</g>
</svg>
