<?xml version="1.0" encoding="utf-8"?>
<!-- Generator: Adobe Illustrator 19.2.1, SVG Export Plug-In . SVG Version: 6.00 Build 0)  -->
<svg version="1.1" id="Layer_1" xmlns="http://www.w3.org/2000/svg" xmlns:xlink="http://www.w3.org/1999/xlink" x="0px" y="0px"
	 viewBox="0 0 512 512" style="enable-background:new 0 0 512 512;" xml:space="preserve">
<g>
	<polygon points="151.7,157.2 340.5,94.5 303.2,42.7 180.4,131 180.4,131 141.3,159.2 145.5,159.2 	"/>
	<polygon points="407.3,159.2 401.9,143.2 390.2,107.7 385.7,109.2 234.9,159.2 	"/>
	<path d="M439.1,159.2c7.8,0,14.1,6.3,14.1,14.1v67.1l15.7-7.8l12.5-6.3v-75.5c0-10.9-8.8-19.7-19.7-19.7h-34.1l9.4,28.2h2.1V159.2z
		"/>
	<path d="M453.2,441h8.5c10.9,0,19.7-8.9,19.7-19.8v-47.4l-28.2,14.1V441z"/>
	<path d="M326.4,328.3c0-38.8,31.6-70.5,70.4-70.5h21.6l6.6-3.3v-47.9c0-10.9-8.8-19.7-19.7-19.7H251.2H134.8H69.3
		c-6.1-1.6-10.5-7-10.5-13.6c0-7.8,6.3-14.1,14.1-14.1h20.3l10.8-7.8l28.4-20.4H72.8c-23.4,0-42.3,19-42.3,42.3V286v112.8V427
		c0,23.3,18.9,42.3,42.3,42.3h253.6c2.1,0,4.1-0.2,6.2-0.6h50.1h22.6c10.9,0,19.7-8.8,19.7-19.7v-50.2h-28.2
		C358,398.8,326.4,367.2,326.4,328.3z"/>
	<path d="M425,286h-28.2c-23.3,0-42.2,19-42.2,42.3s18.9,42.3,42.2,42.3H425l56.4-28.2l0.1-84.5L425,286z M396.8,342.4
		c-7.8,0-14.1-6.3-14.1-14.1c0-7.8,6.3-14.1,14.1-14.1c7.8,0,14.1,6.3,14.1,14.1C410.9,336.1,404.6,342.4,396.8,342.4z"/>
</g>
</svg>
