<?xml version="1.0" encoding="utf-8"?>
<!-- Generator: Adobe Illustrator 21.1.0, SVG Export Plug-In . SVG Version: 6.00 Build 0)  -->
<svg version="1.1" xmlns="http://www.w3.org/2000/svg" xmlns:xlink="http://www.w3.org/1999/xlink" x="0px" y="0px"
	 viewBox="0 0 512 512" style="enable-background:new 0 0 512 512;" xml:space="preserve">
<g id="Layer_1">
	<path d="M179.2,442.4l-27.2-148.5L0,214.5l509-110L385.8,439.9l-104.2-66.8L179.2,442.4z M168.6,293l17.9,99.4l22.6-73.5
		c0.1,0,0.1-0.1,0.1-0.1c0.1-0.2,0.2-0.2,0.2-0.3c0.2-0.6,0.4-1.1,0.7-1.6c0.2-0.2,0.2-0.4,0.4-0.6c0.2-0.2,0.3-0.4,0.5-0.6
		c0.1-0.2,0.2-0.2,0.3-0.3c0.2-0.3,0.5-0.6,0.8-0.8l197.2-145L168.6,293z M232.7,386l33.9-22.6l-9.9-6.5l-34.9-22.7l-22.4,74
		L232.7,386z M43.3,217.9l116.3,61.3l279.3-143.1L43.3,217.9z M479.4,138.6L231.6,320.9l19.2,12.5l126.6,82.3L479.4,138.6z"/>
</g>
<g id="Layer_2">
</g>
</svg>
