<?xml version="1.0" encoding="utf-8"?>
<!-- Generator: Adobe Illustrator 21.1.0, SVG Export Plug-In . SVG Version: 6.00 Build 0)  -->
<svg version="1.1" id="Layer_1" xmlns="http://www.w3.org/2000/svg" xmlns:xlink="http://www.w3.org/1999/xlink" x="0px" y="0px"
	 viewBox="0 0 512 512" style="enable-background:new 0 0 512 512;" xml:space="preserve">
<g id="Layer_1_1_">
	<g id="Layer_3">
		<g>
			<g>
				<path d="M261.3,274c-7.1-4.7-21.1-21.6-22-40c7.8,12.1,19.2,13.5,19.2,13.5s-7.3-10.7-10.4-26.1c-0.7-4.5-1.9-9-4-13l-37.4,10.4
					l-9.7,33.9C214.1,266.2,240.4,277.8,261.3,274z M205.9,117.7c0.7,3.1,1.4,6.2,2.6,8.8c0.5,0,1.4,0,1.9,0
					C208.7,123.8,207.3,121,205.9,117.7z M113,121.4c3.6,4.5,7.1,9,10.4,13.3c1.9,0,4-0.2,5.9-0.2
					C124.1,130.2,118.9,125.9,113,121.4z M455,263.1c-52.3-5.9-89.8-11.6-116.8-21.6c15.2-9.9,34.3-20.6,58.5-33.4
					c-28.4,7.6-69.6,15.2-69.6,15.2l18.7-43.8l-73.4,20.8c3.6,3.1,6.9,6.9,10.7,12.1c8.8,13.5,9.2,31,20.1,42.9
					c-9-2.8-13.5-6.4-20.4-12.3c2.6,23,8.8,50.4,26.5,63.5c0,0-25.3,13.5-63.2-8.8c-0.2,8.8,8.5,17.1,15.9,19.7
					c-11.1,1.7-59.2-3.3-72.7-36.2l-20.4,72l42.2-15.6c0,0-9.7,39.1-17.8,65.1c14.9-25.3,27-45,38.4-60.2
					c10.9,27.5,16.8,66.1,23,121c5.9-52.3,11.6-89.8,21.6-116.8c10.2,14.9,20.6,34.3,33.4,58.5c-7.6-28.4-12.8-51.2-15.2-69.6
					c27.2,11.6,58.5,34.8,102.1,69.4c-32.7-41.2-55.4-71.5-67.5-97.8c17.8,3.6,39.1,9.7,65.1,17.8c-25.3-14.9-45-27-60.2-38.4
					C361.5,275.2,400.1,269.2,455,263.1z M114.7,215.5c-1.9-0.5-3.3-0.9-5.2-1.4c1.7,0.7,3.6,1.7,5.2,2.4
					C114.9,216.2,114.9,215.7,114.7,215.5z"/>
			</g>
		</g>
	</g>
	<g id="Layer_3_2_">
		<g>
			<g>
				<path d="M108.3,83.1c-20.8-0.5-37.9,16.6-37.4,37.4c3.3,139.3,45,362.4,45,362.4L194,206.2L470.6,128
					C470.6,128.1,247.8,86.6,108.3,83.1z M111.6,159.3c-4.5,4.5-12.8,3.3-18.5-2.4s-6.9-14-2.4-18.5s12.8-3.3,18.5,2.4
					C114.9,146.5,116.1,154.8,111.6,159.3z M147.1,123.8c-4.5,4.5-12.8,3.3-18.5-2.4c-5.7-5.7-6.9-14-2.4-18.5
					c4.5-4.5,12.8-3.3,18.5,2.4C150.4,111,151.6,119.3,147.1,123.8z"/>
			</g>
		</g>
	</g>
</g>
</svg>
